<?xml version="1.0" encoding="UTF-8" standalone="no"?>
<svg
   width="493.32999"
   height="329.32999"
   viewBox="0 0 493.32999 329.32999"
   version="1.1"
   xml:space="preserve"
   id="svg18"
   sodipodi:docname="eco-ecology-industry-svgrepo-com.svg"
   inkscape:version="1.1.2 (0a00cf5339, 2022-02-04)"
   xmlns:inkscape="http://www.inkscape.org/namespaces/inkscape"
   xmlns:sodipodi="http://sodipodi.sourceforge.net/DTD/sodipodi-0.dtd"
   xmlns="http://www.w3.org/2000/svg"
   xmlns:svg="http://www.w3.org/2000/svg"><defs
     id="defs22" /><sodipodi:namedview
     id="namedview20"
     pagecolor="#ffffff"
     bordercolor="#666666"
     borderopacity="1.0"
     inkscape:pageshadow="2"
     inkscape:pageopacity="0.0"
     inkscape:pagecheckerboard="0"
     showgrid="false"
     inkscape:zoom="1.515625"
     inkscape:cx="255.6701"
     inkscape:cy="256"
     inkscape:window-width="1920"
     inkscape:window-height="1011"
     inkscape:window-x="0"
     inkscape:window-y="0"
     inkscape:window-maximized="1"
     inkscape:current-layer="svg18" /><style
     type="text/css"
     id="style2">
	.st0{display:none;}
	.st1{fill:#474747;}
</style><g
     class="st0"
     id="Layer_1" /><g
     id="Layer_2"
     style="fill:#6d8b8b;fill-opacity:1"
     transform="matrix(0.24787209,0,0,0.24787209,173.21995,94.513956)"><g
       id="g15"
       style="fill:#6d8b8b;fill-opacity:1"><path
         class="st1"
         d="m 286.67,413.64 c 3.87,0 7,-3.13 7,-7 v -32.17 c 0,-3.87 -3.13,-7 -7,-7 h -66.02 c -3.87,0 -7,3.13 -7,7 v 32.17 c 0,3.87 3.13,7 7,7 z m -59.02,-32.17 h 52.02 v 18.17 h -52.02 z"
         id="path5"
         style="fill:#6d8b8b;fill-opacity:1" /><path
         class="st1"
         d="m 388.87,413.64 c 3.87,0 7,-3.13 7,-7 v -32.17 c 0,-3.87 -3.13,-7 -7,-7 h -66.02 c -3.87,0 -7,3.13 -7,7 v 32.17 c 0,3.87 3.13,7 7,7 z m -59.01,-32.17 h 52.02 v 18.17 h -52.02 z"
         id="path7"
         style="fill:#6d8b8b;fill-opacity:1" /><path
         class="st1"
         d="m 165.98,139.46 c 7.63,5.2 16.67,8.02 26.01,8.02 3.88,0 7.68,-0.48 11.38,-1.42 10.84,30.04 39.42,50.43 71.93,50.43 42.18,0 76.49,-34.31 76.49,-76.49 0,-42.18 -34.3,-76.5 -76.48,-76.5 -20.34,0 -39.59,8 -53.86,22.18 -8.23,-6.82 -18.62,-10.62 -29.45,-10.62 -15.03,0 -28.91,7.24 -37.53,19.25 -3.26,-0.93 -6.64,-1.4 -10.1,-1.4 -20.28,0 -36.78,16.5 -36.78,36.78 0,20.28 16.5,36.78 36.78,36.78 7.89,0 15.38,-2.45 21.61,-7.01 z m -44.39,-29.77 c 0,-12.56 10.22,-22.78 22.78,-22.78 3.48,0 6.83,0.77 9.94,2.28 3.39,1.65 7.47,0.32 9.24,-3.01 5.62,-10.56 16.52,-17.11 28.45,-17.11 9.39,0 18.29,4.1 24.43,11.24 1.33,1.55 3.27,2.44 5.31,2.44 0.02,0 0.04,0 0.07,0 2.06,-0.02 4.01,-0.95 5.33,-2.54 11.93,-14.42 29.49,-22.7 48.18,-22.7 34.46,0 62.49,28.03 62.49,62.49 0,34.46 -28.03,62.49 -62.49,62.49 -22.02,0 -41.82,-11.45 -53,-29.34 -0.03,-0.06 -0.06,-0.12 -0.1,-0.18 -1.91,-3.07 -3.54,-6.28 -4.88,-9.61 -0.01,-0.02 -0.02,-0.04 -0.03,-0.06 -0.18,-0.44 -0.34,-0.89 -0.51,-1.33 -0.13,-0.33 -0.25,-0.67 -0.37,-1 -0.13,-0.37 -0.26,-0.74 -0.38,-1.11 -0.15,-0.44 -0.29,-0.88 -0.42,-1.32 -0.1,-0.31 -0.19,-0.63 -0.29,-0.95 -0.16,-0.55 -0.31,-1.11 -0.46,-1.67 -1.35,-5.16 -2.06,-10.5 -2.06,-15.91 0,-5.34 0.67,-10.65 2,-15.77 0.97,-3.74 -1.27,-7.56 -5.02,-8.54 -3.74,-0.97 -7.56,1.27 -8.54,5.02 -1.63,6.27 -2.45,12.76 -2.45,19.29 0,4.21 0.35,8.39 1.03,12.51 -2.55,0.64 -5.18,0.98 -7.86,0.98 -7.24,0 -14.22,-2.43 -19.87,-6.88 -0.38,-0.3 -0.76,-0.61 -1.13,-0.93 -0.17,-0.15 -0.34,-0.29 -0.51,-0.44 -4.05,-3.63 -7.11,-8.2 -8.91,-13.34 -1.27,-3.65 -5.27,-5.58 -8.92,-4.3 -3.65,1.27 -5.58,5.27 -4.3,8.92 1.66,4.75 4.09,9.14 7.14,13.07 -3.36,1.89 -7.16,2.9 -11.13,2.9 -12.54,-0.03 -22.76,-10.25 -22.76,-22.81 z"
         id="path9"
         style="fill:#6d8b8b;fill-opacity:1" /><path
         class="st1"
         d="M 72.38,373.67 62.4,460.7 c -0.23,1.98 0.4,3.97 1.73,5.46 1.33,1.49 3.23,2.34 5.22,2.34 h 111.09 262.21 c 3.87,0 7,-3.13 7,-7 V 277.95 c 0,-3.87 -3.13,-7 -7,-7 h -42.04 c -3.87,0 -7,3.13 -7,7 v 28.22 l -23.24,-32.31 c -1.32,-1.83 -3.43,-2.91 -5.68,-2.91 h -41.83 c -3.87,0 -7,3.13 -7,7 v 28.22 l -23.24,-32.31 c -1.32,-1.83 -3.43,-2.91 -5.68,-2.91 h -41.83 c -3.87,0 -7,3.13 -7,7 v 28.21 l -23.23,-32.3 c -1.32,-1.83 -3.43,-2.91 -5.68,-2.91 h -19.88 c -3.87,0 -7,3.13 -7,7 0,3.87 3.13,7 7,7 h 16.3 l 33.82,47.02 c 1.77,2.47 4.94,3.51 7.83,2.58 2.89,-0.93 4.85,-3.62 4.85,-6.66 v -42.94 h 31.24 l 33.83,47.03 c 1.77,2.47 4.94,3.51 7.83,2.57 2.89,-0.93 4.85,-3.62 4.85,-6.66 v -42.94 h 31.24 l 33.83,47.03 c 1.77,2.47 4.94,3.51 7.83,2.57 2.89,-0.93 4.85,-3.62 4.85,-6.66 v -42.94 h 28.04 V 454.5 H 186.68 L 166.34,277.15 c 0,-0.02 -0.01,-0.03 -0.01,-0.05 l -8.19,-71.35 c 0,-0.04 -0.01,-0.09 0.05,-0.15 0.06,-0.06 0.11,-0.06 0.14,-0.06 7.83,0 14.2,-6.37 14.2,-14.19 v -27.99 c 0,-3.87 -3.13,-7 -7,-7 H 84.26 c -3.87,0 -7,3.13 -7,7 v 27.99 c 0,7.83 6.37,14.19 14.2,14.19 0.04,0 0.09,0 0.15,0.06 0.06,0.06 0.05,0.11 0.05,0.15 L 78.89,316.94 c -0.44,3.84 2.32,7.31 6.16,7.75 3.84,0.44 7.31,-2.32 7.75,-6.16 l 12.76,-111.19 c 0.46,-4.02 -0.82,-8.05 -3.51,-11.07 -2.69,-3.02 -6.55,-4.75 -10.59,-4.75 -0.11,0 -0.19,-0.09 -0.19,-0.19 v -20.99 h 67.27 v 20.99 c 0,0.11 -0.09,0.19 -0.2,0.19 -4.04,0 -7.9,1.73 -10.59,4.75 -2.69,3.02 -3.97,7.05 -3.51,11.07 L 172.6,454.49 H 77.2 l 9.09,-79.24 c 0.44,-3.84 -2.32,-7.31 -6.16,-7.75 -3.84,-0.44 -7.31,2.33 -7.75,6.17 z"
         id="path11"
         style="fill:#6d8b8b;fill-opacity:1" /><path
         class="st1"
         d="m 76.77,349.99 c 0.25,0.38 0.55,0.74 0.87,1.06 0.32,0.33 0.68,0.62 1.06,0.87 0.38,0.26 0.79,0.47 1.21,0.65 0.43,0.17 0.87,0.31 1.31,0.4 0.45,0.09 0.92,0.13 1.37,0.13 1.84,0 3.65,-0.75 4.95,-2.05 0.32,-0.32 0.62,-0.68 0.87,-1.06 0.25,-0.38 0.47,-0.79 0.64,-1.21 0.18,-0.42 0.31,-0.86 0.4,-1.31 0.09,-0.45 0.14,-0.91 0.14,-1.37 0,-0.45 -0.05,-0.91 -0.14,-1.37 -0.09,-0.44 -0.22,-0.88 -0.4,-1.3 -0.17,-0.43 -0.39,-0.83 -0.64,-1.21 -0.25,-0.39 -0.55,-0.74 -0.87,-1.07 -1.3,-1.3 -3.11,-2.05 -4.95,-2.05 -1.84,0 -3.65,0.75 -4.95,2.05 -0.32,0.33 -0.62,0.68 -0.87,1.07 -0.25,0.38 -0.47,0.78 -0.64,1.21 -0.18,0.42 -0.31,0.86 -0.4,1.3 -0.09,0.46 -0.14,0.92 -0.14,1.37 0,0.46 0.05,0.92 0.14,1.37 0.09,0.45 0.22,0.89 0.4,1.31 0.17,0.42 0.39,0.83 0.64,1.21 z"
         id="path13"
         style="fill:#6d8b8b;fill-opacity:1" /></g></g></svg>
