<?xml version="1.0" encoding="UTF-8" standalone="no"?>
<!-- Generator: Adobe Illustrator 19.0.0, SVG Export Plug-In . SVG Version: 6.00 Build 0)  -->

<svg
   version="1.1"
   id="Layer_1"
   x="0px"
   y="0px"
   viewBox="0 0 493.32997 329.32998"
   xml:space="preserve"
   sodipodi:docname="newspaper-news-svgrepo-com.svg"
   width="493.32999"
   height="329.32999"
   inkscape:version="1.1.2 (0a00cf5339, 2022-02-04)"
   xmlns:inkscape="http://www.inkscape.org/namespaces/inkscape"
   xmlns:sodipodi="http://sodipodi.sourceforge.net/DTD/sodipodi-0.dtd"
   xmlns="http://www.w3.org/2000/svg"
   xmlns:svg="http://www.w3.org/2000/svg"><defs
   id="defs77" /><sodipodi:namedview
   id="namedview75"
   pagecolor="#ffffff"
   bordercolor="#666666"
   borderopacity="1.0"
   inkscape:pageshadow="2"
   inkscape:pageopacity="0.0"
   inkscape:pagecheckerboard="0"
   showgrid="false"
   inkscape:zoom="0.78812449"
   inkscape:cx="57.731996"
   inkscape:cy="139.57186"
   inkscape:window-width="1920"
   inkscape:window-height="1011"
   inkscape:window-x="0"
   inkscape:window-y="0"
   inkscape:window-maximized="1"
   inkscape:current-layer="g4" />
<g
   id="g6">
	<g
   id="g4">
		<path
   d="m 227.98318,108.69357 v 44.3495 H 208.3566 v 39.91694 c 0,6.4707 5.26403,11.73375 11.73375,11.73375 h 72.53347 c 6.46972,0 11.73278,-5.35509 11.73278,-11.93811 v -84.06208 z m 0,84.26644 c 0,4.35182 -3.54101,7.89381 -7.89283,7.89381 -4.3528,0 -7.89381,-3.54179 -7.89381,-7.89381 v -36.077 h 15.78664 z m 72.53347,-0.20436 c 0,4.46434 -3.54101,8.09817 -7.8938,8.09817 h -63.87683 c 1.90438,-2.0867 3.07711,-4.85219 3.07711,-7.89381 v -37.99697 -1.91997 -40.50956 h 68.69352 z"
   id="path2"
   style="fill:#6d8b8b;fill-opacity:1;stroke-width:0.195" />
	</g>
</g>
<g
   id="g12"
   style="fill:#6d8b8b;fill-opacity:1"
   transform="matrix(0.19500027,0,0,0.19500027,208.3566,108.69357)">
	<g
   id="g10"
   style="fill:#6d8b8b;fill-opacity:1">
		<path
   d="M 158.413,61.567 V 278.961 H 303.918 V 61.567 Z M 284.226,259.269 H 178.106 V 81.26 h 106.12 z"
   id="path8"
   style="fill:#6d8b8b;fill-opacity:1" />
	</g>
</g>
<g
   id="g18"
   style="fill:#6d8b8b;fill-opacity:1"
   transform="matrix(0.19500027,0,0,0.19500027,208.3566,108.69357)">
	<g
   id="g16"
   style="fill:#6d8b8b;fill-opacity:1">
		<rect
   x="333.07599"
   y="90.879997"
   width="108.308"
   height="19.691999"
   id="rect14"
   style="fill:#6d8b8b;fill-opacity:1" />
	</g>
</g>
<g
   id="g24"
   style="fill:#6d8b8b;fill-opacity:1"
   transform="matrix(0.19500027,0,0,0.19500027,208.3566,108.69357)">
	<g
   id="g22"
   style="fill:#6d8b8b;fill-opacity:1">
		<rect
   x="333.07599"
   y="151.483"
   width="108.308"
   height="19.691999"
   id="rect20"
   style="fill:#6d8b8b;fill-opacity:1" />
	</g>
</g>
<g
   id="g30"
   style="fill:#6d8b8b;fill-opacity:1"
   transform="matrix(0.19500027,0,0,0.19500027,208.3566,108.69357)">
	<g
   id="g28"
   style="fill:#6d8b8b;fill-opacity:1">
		<rect
   x="333.07599"
   y="212.076"
   width="108.308"
   height="19.691999"
   id="rect26"
   style="fill:#6d8b8b;fill-opacity:1" />
	</g>
</g>
<g
   id="g36"
   style="fill:#6d8b8b;fill-opacity:1"
   transform="matrix(0.19500027,0,0,0.19500027,208.3566,108.69357)">
	<g
   id="g34"
   style="fill:#6d8b8b;fill-opacity:1">
		<rect
   x="153.16701"
   y="338.57999"
   width="288.19699"
   height="19.691999"
   id="rect32"
   style="fill:#6d8b8b;fill-opacity:1" />
	</g>
</g>
<g
   id="g42"
   style="fill:#6d8b8b;fill-opacity:1"
   transform="matrix(0.19500027,0,0,0.19500027,208.3566,108.69357)">
	<g
   id="g40"
   style="fill:#6d8b8b;fill-opacity:1">
		<rect
   x="153.16701"
   y="405.56299"
   width="288.19699"
   height="19.691999"
   id="rect38"
   style="fill:#6d8b8b;fill-opacity:1" />
	</g>
</g>
<g
   id="g44">
</g>
<g
   id="g46">
</g>
<g
   id="g48">
</g>
<g
   id="g50">
</g>
<g
   id="g52">
</g>
<g
   id="g54">
</g>
<g
   id="g56">
</g>
<g
   id="g58">
</g>
<g
   id="g60">
</g>
<g
   id="g62">
</g>
<g
   id="g64">
</g>
<g
   id="g66">
</g>
<g
   id="g68">
</g>
<g
   id="g70">
</g>
<g
   id="g72">
</g>
</svg>
