<?xml version="1.0" encoding="UTF-8" standalone="no"?>
<!-- Generator: Adobe Illustrator 19.0.0, SVG Export Plug-In . SVG Version: 6.00 Build 0)  -->

<svg
   version="1.1"
   id="Capa_1"
   x="0px"
   y="0px"
   viewBox="0 0 493.32999 329.32999"
   xml:space="preserve"
   sodipodi:docname="presentation-svgrepo-com.svg"
   width="493.32999"
   height="329.32999"
   inkscape:version="1.1.2 (0a00cf5339, 2022-02-04)"
   xmlns:inkscape="http://www.inkscape.org/namespaces/inkscape"
   xmlns:sodipodi="http://sodipodi.sourceforge.net/DTD/sodipodi-0.dtd"
   xmlns="http://www.w3.org/2000/svg"
   xmlns:svg="http://www.w3.org/2000/svg"><defs
   id="defs41" /><sodipodi:namedview
   id="namedview39"
   pagecolor="#ffffff"
   bordercolor="#666666"
   borderopacity="1.0"
   inkscape:pageshadow="2"
   inkscape:pageopacity="0.0"
   inkscape:pagecheckerboard="0"
   showgrid="false"
   inkscape:zoom="0.7592955"
   inkscape:cx="142.89562"
   inkscape:cy="169.89433"
   inkscape:window-width="1920"
   inkscape:window-height="1011"
   inkscape:window-x="0"
   inkscape:window-y="0"
   inkscape:window-maximized="1"
   inkscape:current-layer="Capa_1" />
<g
   id="g6"
   style="fill:#6d8b8b;fill-opacity:1"
   transform="matrix(0.18786693,0,0,0.18786693,192.49443,110.86523)">
	<path
   d="M 511,23.075 H 263 v -16.5 h -15 v 16.5 H 0 v 47 h 16 v 272 h 112.616 l -40.384,158.65 14.536,3.699 27.071,-106.35 H 248 v 72.5 h 15 v -72.5 h 118.161 l 27.071,106.35 14.536,-3.699 -40.384,-158.65 H 495 v -272 h 16 z m -377.343,360 10.436,-41 H 248 v 41 z m 243.686,0 H 263 v -41 H 366.906 Z M 480,327.075 H 31 v -257 h 449 z m 16,-272 H 15 v -17 h 481 z"
   id="path2"
   style="fill:#6d8b8b;fill-opacity:1" />
	<polygon
   points="382.197,93.272 223.5,251.969 187.5,215.969 114.197,289.272 124.803,299.878 187.5,237.182 223.5,273.182 392.803,103.878 "
   id="polygon4"
   style="fill:#6d8b8b;fill-opacity:1" />
</g>
<g
   id="g8">
</g>
<g
   id="g10">
</g>
<g
   id="g12">
</g>
<g
   id="g14">
</g>
<g
   id="g16">
</g>
<g
   id="g18">
</g>
<g
   id="g20">
</g>
<g
   id="g22">
</g>
<g
   id="g24">
</g>
<g
   id="g26">
</g>
<g
   id="g28">
</g>
<g
   id="g30">
</g>
<g
   id="g32">
</g>
<g
   id="g34">
</g>
<g
   id="g36">
</g>
</svg>
