<?xml version="1.0" encoding="UTF-8" standalone="no"?>
<!-- Generator: Adobe Illustrator 19.0.0, SVG Export Plug-In . SVG Version: 6.00 Build 0)  -->

<svg
   version="1.1"
   id="Layer_1"
   x="0px"
   y="0px"
   viewBox="0 0 493.32999 329.32999"
   xml:space="preserve"
   sodipodi:docname="interesses.svg"
   inkscape:version="1.1.2 (0a00cf5339, 2022-02-04)"
   width="493.32999"
   height="329.32999"
   xmlns:inkscape="http://www.inkscape.org/namespaces/inkscape"
   xmlns:sodipodi="http://sodipodi.sourceforge.net/DTD/sodipodi-0.dtd"
   xmlns="http://www.w3.org/2000/svg"
   xmlns:svg="http://www.w3.org/2000/svg"><defs
   id="defs65" /><sodipodi:namedview
   id="namedview63"
   pagecolor="#ffffff"
   bordercolor="#666666"
   borderopacity="1.0"
   inkscape:pageshadow="2"
   inkscape:pageopacity="0.0"
   inkscape:pagecheckerboard="0"
   showgrid="false"
   inkscape:zoom="0.78225806"
   inkscape:cx="-41.546392"
   inkscape:cy="152.12371"
   inkscape:window-width="1920"
   inkscape:window-height="1011"
   inkscape:window-x="0"
   inkscape:window-y="0"
   inkscape:window-maximized="1"
   inkscape:current-layer="g26" />
<g
   id="g30"
   style="fill:#6d8b8b;fill-opacity:1">
	<g
   id="g28"
   style="fill:#6d8b8b;fill-opacity:1">
		<g
   id="g26"
   style="fill:#6d8b8b;fill-opacity:1">
			<path
   d="m 287.29163,172.65569 h -15.48387 v -3.09677 h -3.09677 v 3.09677 h -2.41239 c -1.45548,-5.24903 -4.69935,-9.75174 -9.04722,-12.80825 l 4.61729,-7.38736 c 0.21367,0.031 0.4258,0.0666 0.64877,0.0666 1.24955,0 2.37987,-0.50168 3.216,-1.30684 l 7.68,3.84 c -0.0232,0.18736 -0.0573,0.37162 -0.0573,0.56362 0,2.56103 2.08413,4.64516 4.64516,4.64516 2.56103,0 4.64516,-2.08413 4.64516,-4.64516 0,-1.26194 -0.50942,-2.4062 -1.33006,-3.24388 l 6.99561,-15.39096 c 0.17652,0.0217 0.34684,0.0542 0.528,0.0542 2.56103,0 4.64516,-2.08413 4.64516,-4.64516 0,-2.56104 -2.08413,-4.64517 -4.64516,-4.64517 -2.56103,0 -4.64516,2.08413 -4.64516,4.64517 0,1.26193 0.50942,2.40619 1.33006,3.24387 l -6.99561,15.39097 c -0.17652,-0.0217 -0.34684,-0.0542 -0.528,-0.0542 -1.24955,0 -2.37987,0.50167 -3.216,1.30683 l -7.68,-3.84 c 0.0232,-0.18735 0.0573,-0.37161 0.0573,-0.56361 0,-2.56103 -2.08413,-4.64516 -4.64516,-4.64516 -2.56103,0 -4.64516,2.08413 -4.64516,4.64516 0,1.21394 0.47845,2.31174 1.24335,3.14013 l -4.51045,7.21858 c -3.19897,-1.66142 -6.82219,-2.61677 -10.66839,-2.61677 -1.0529,0 -2.08103,0.0945 -3.09677,0.23071 v -34.29523 h 6.19355 v -3.09677 h -6.19355 -21.67742 -6.19355 v 3.09677 h 6.19355 v 39.82452 l -19.68929,32.34271 c -1.30064,2.13832 -1.98813,4.59096 -1.98813,7.09471 0,7.52206 6.11923,13.64129 13.64129,13.64129 h 37.74968 c 7.52052,0 13.64129,-6.11923 13.64129,-13.64129 0,-2.18013 -0.55123,-4.30917 -1.54529,-6.23846 2.47587,-2.67716 4.32464,-5.93032 5.32645,-9.54116 h 2.41239 v 3.09678 h 3.09677 v -3.09678 h 15.48387 c 3.41575,0 6.19355,-2.7778 6.19355,-6.19355 0,-3.41574 -2.7778,-6.192 -6.19355,-6.192 z m 1.54839,-41.80645 c 0.85471,0 1.54839,0.69368 1.54839,1.54839 0,0.85471 -0.69368,1.54839 -1.54839,1.54839 -0.85471,0 -1.54839,-0.69368 -1.54839,-1.54839 0,-0.85471 0.69368,-1.54839 1.54839,-1.54839 z m -10.83871,23.22581 c 0.85471,0 1.54839,0.69368 1.54839,1.54839 0,0.85471 -0.69368,1.54838 -1.54839,1.54838 -0.85471,0 -1.54839,-0.69367 -1.54839,-1.54838 0,-0.85471 0.69368,-1.54839 1.54839,-1.54839 z m -15.48387,-7.74194 c 0.85471,0 1.54839,0.69368 1.54839,1.54839 0,0.85471 -0.69368,1.54839 -1.54839,1.54839 -0.85471,0 -1.54839,-0.69368 -1.54839,-1.54839 0,-0.85471 0.69368,-1.54839 1.54839,-1.54839 z m -17.93187,27.936 c -0.21368,-0.0294 -0.42581,-0.065 -0.64878,-0.065 -2.56103,0 -4.64516,2.08413 -4.64516,4.64517 0,2.56103 2.08413,4.64516 4.64516,4.64516 2.56104,0 4.64517,-2.08413 4.64517,-4.64516 0,-1.21394 -0.47846,-2.31175 -1.24336,-3.14013 l 4.97961,-7.968 c 3.3662,2.54709 5.55407,6.57135 5.55407,11.10813 0,7.68464 -6.25084,13.93548 -13.93549,13.93548 -7.68464,0 -13.93548,-6.25084 -13.93548,-13.93548 0,-7.68465 6.25084,-13.93549 13.93548,-13.93549 2.03923,0 3.97317,0.45058 5.72129,1.24181 z m 0.89961,4.58013 c 0,0.85471 -0.69368,1.54839 -1.54839,1.54839 -0.85471,0 -1.54838,-0.69368 -1.54838,-1.54839 0,-0.85471 0.69367,-1.54838 1.54838,-1.54838 0.85471,0 1.54839,0.69367 1.54839,1.54838 z m -23.2258,-16.59871 v -40.69161 h 15.48387 v 34.92852 c -7.8302,2.17238 -13.99587,8.33806 -16.16826,16.16825 h -5.64852 z m 26.61677,49.11484 h -37.74968 c -5.81419,0 -10.54451,-4.73032 -10.54451,-10.54451 0,-1.93549 0.53264,-3.83226 1.53754,-5.48439 l 11.92104,-19.584 h 6.90116 c -0.13626,1.01574 -0.23071,2.04387 -0.23071,3.09677 0,12.80671 10.41909,23.22581 23.2258,23.22581 5.56646,0 10.67923,-1.9711 14.68336,-5.24903 0.51871,1.26348 0.80052,2.61832 0.80052,3.99484 0,5.81419 -4.73033,10.54451 -10.54452,10.54451 z m -4.93936,-12.38709 c -11.09883,0 -20.12903,-9.0302 -20.12903,-20.12904 0,-11.09884 9.0302,-20.12903 20.12903,-20.12903 3.24388,0 6.30194,0.78968 9.01781,2.15845 l -1.64903,2.63845 c -2.23278,-1.07767 -4.72723,-1.70012 -7.36878,-1.70012 -9.39096,0 -17.03225,7.64129 -17.03225,17.03225 0,9.39097 7.64129,17.03226 17.03225,17.03226 9.39097,0 17.03226,-7.64129 17.03226,-17.03226 0,-5.64232 -2.76851,-10.63742 -7.00645,-13.73884 l 1.64439,-2.63071 c 5.10968,3.6542 8.45884,9.62168 8.45884,16.36955 0,11.09884 -9.0302,20.12904 -20.12904,20.12904 z m 24.7742,-17.03226 h -1.7791 c 0.13626,-1.01574 0.23071,-2.04387 0.23071,-3.09678 0,-1.0529 -0.0944,-2.08103 -0.23071,-3.09677 h 1.7791 z m 18.58064,0 h -15.48387 v -6.19355 h 15.48387 c 1.70787,0 3.09678,1.3889 3.09678,3.09677 0,1.70787 -1.38891,3.09678 -3.09678,3.09678 z"
   id="path2"
   style="fill:#6d8b8b;fill-opacity:1;stroke-width:0.193548" />
			
			
			
			
			
			
			
			
			
			
			
		</g>
	</g>
</g>
<g
   id="g32">
</g>
<g
   id="g34">
</g>
<g
   id="g36">
</g>
<g
   id="g38">
</g>
<g
   id="g40">
</g>
<g
   id="g42">
</g>
<g
   id="g44">
</g>
<g
   id="g46">
</g>
<g
   id="g48">
</g>
<g
   id="g50">
</g>
<g
   id="g52">
</g>
<g
   id="g54">
</g>
<g
   id="g56">
</g>
<g
   id="g58">
</g>
<g
   id="g60">
</g>
</svg>
