<?xml version="1.0" encoding="UTF-8" standalone="no"?>
<!-- Generator: Adobe Illustrator 19.0.0, SVG Export Plug-In . SVG Version: 6.00 Build 0)  -->

<svg
   version="1.1"
   id="Layer_1"
   x="0px"
   y="0px"
   viewBox="0 0 493.33002 329.33001"
   xml:space="preserve"
   sodipodi:docname="sustentabilidade.svg"
   inkscape:version="1.1.2 (0a00cf5339, 2022-02-04)"
   width="493.32999"
   height="329.32999"
   xmlns:inkscape="http://www.inkscape.org/namespaces/inkscape"
   xmlns:sodipodi="http://sodipodi.sourceforge.net/DTD/sodipodi-0.dtd"
   xmlns="http://www.w3.org/2000/svg"
   xmlns:svg="http://www.w3.org/2000/svg"><defs
   id="defs55" /><sodipodi:namedview
   id="namedview53"
   pagecolor="#ffffff"
   bordercolor="#666666"
   borderopacity="1.0"
   inkscape:pageshadow="2"
   inkscape:pageopacity="0.0"
   inkscape:pagecheckerboard="0"
   showgrid="false"
   showguides="false"
   inkscape:zoom="0.53584497"
   inkscape:cx="308.85799"
   inkscape:cy="201.55083"
   inkscape:window-width="1920"
   inkscape:window-height="1011"
   inkscape:window-x="0"
   inkscape:window-y="0"
   inkscape:window-maximized="1"
   inkscape:current-layer="g16" />
<g
   id="g20"
   style="fill:#6d8b8b;fill-opacity:1"
   transform="translate(0,-0.004)">
	<g
   id="g18"
   style="fill:#6d8b8b;fill-opacity:1">
		<g
   id="g16"
   style="fill:#6d8b8b;fill-opacity:1">
			
			
			
			
			
			
			<g
   id="g1002"
   transform="matrix(0.18749672,0,0,0.18749672,199.45135,109.34793)"><path
     d="m 278.793,315.055 c 0.939,0.333 1.903,0.495 2.842,0.495 3.516,0 6.81,-2.193 8.047,-5.7 1.57,-4.437 -0.768,-9.318 -5.205,-10.888 -57.865,-20.437 -96.742,-75.426 -96.742,-136.823 0,-3.157 0.094,-6.05 0.273,-8.917 16.307,1.98 17.971,10.684 19.985,21.359 1.621,8.516 4.634,24.371 23.637,21.606 11.844,-1.732 22.118,-8.781 28.937,-19.831 7.671,-12.459 10.155,-28.834 6.016,-40.175 0.956,-1.485 7.279,-3.763 13.619,-1.894 6.263,1.852 6.989,6.204 6.989,9.318 0,11.674 -2.287,23.842 -4.13,33.621 -2.799,14.865 -4.651,24.687 1.34,30.669 0.99,0.998 2.56,2.21 4.489,3.627 8.516,6.246 21.376,15.676 10.47,41.122 -8.013,18.705 -9.515,46.089 28.894,70.315 1.357,0.862 2.944,1.314 4.548,1.314 89.404,0 162.133,-72.73 162.133,-162.133 0,-2.893 -0.077,-5.769 -0.222,-8.619 -0.256,-4.71 -4.309,-8.422 -8.969,-8.073 -4.71,0.239 -8.329,4.258 -8.081,8.96 0.128,2.569 0.205,5.137 0.205,7.731 0,79.155 -63.735,143.718 -142.583,145.05 -28.382,-18.799 -25.199,-36.241 -20.241,-47.821 16.247,-37.914 -7.219,-55.125 -16.051,-61.611 -0.563,-0.41 -1.084,-0.768 -1.527,-1.109 -0.102,-3.14 1.306,-10.641 2.372,-16.265 1.963,-10.479 4.42,-23.518 4.42,-36.779 0,-11.102 -5.649,-19.968 -15.497,-24.32 -10.965,-4.847 -25.626,-3.081 -33.425,4.019 -5.137,4.668 -6.921,11.29 -4.779,17.698 2.048,6.144 1.152,17.186 -4.523,26.402 -2.91,4.727 -8.201,10.624 -16.862,11.887 -1.485,0.222 -2.185,0.111 -2.253,0.171 -0.836,-1.084 -1.63,-5.274 -2.15,-8.064 -2.364,-12.459 -6.758,-35.669 -44.501,-35.669 -0.401,0 -0.751,0.179 -1.143,0.23 -0.58,0.085 -1.152,0.145 -1.698,0.35 -0.512,0.179 -0.939,0.444 -1.399,0.717 -0.486,0.282 -0.947,0.546 -1.365,0.922 -0.41,0.358 -0.717,0.777 -1.05,1.212 -0.333,0.427 -0.657,0.845 -0.905,1.34 -0.256,0.512 -0.393,1.067 -0.538,1.63 -0.102,0.384 -0.316,0.7 -0.367,1.101 -0.794,6.494 -1.135,12.151 -1.135,18.91 -0.001,68.623 43.45,130.072 108.125,152.915 z"
     id="path2"
     style="fill:#6d8b8b;fill-opacity:1" /><path
     d="m 185.097,118.976 c 4.463,1.579 9.327,-0.759 10.888,-5.197 20.446,-57.847 75.435,-96.708 136.815,-96.708 9.583,0 19.115,0.939 28.45,2.79 -0.077,5.18 0.486,10.709 1.024,16.128 0.503,4.958 1.297,12.954 0.623,16.137 -16.853,5.948 -28.902,16.367 -33.161,28.749 -3.123,9.079 -1.8,18.628 3.712,26.906 2.884,4.326 5.41,9.216 7.842,13.926 5.077,9.83 11.691,22.647 22.246,22.647 2.253,0 4.676,-0.58 7.305,-1.894 6.588,-3.302 10.829,-10.854 15.3,-18.842 4.318,-7.723 9.702,-17.331 14.925,-17.331 3.004,0 4.147,0.555 6.434,11.366 1.536,7.262 3.447,16.299 11.52,20.326 11.213,5.623 45.909,0.102 65.399,-8.183 0.358,-0.154 0.589,-0.435 0.913,-0.631 0.503,-0.29 0.981,-0.58 1.399,-0.956 0.418,-0.375 0.734,-0.785 1.067,-1.229 0.324,-0.435 0.631,-0.853 0.879,-1.348 0.239,-0.486 0.375,-0.99 0.521,-1.527 0.145,-0.529 0.265,-1.041 0.299,-1.596 0.043,-0.546 -0.026,-1.092 -0.094,-1.655 -0.051,-0.384 0.017,-0.751 -0.077,-1.135 -12.092,-44.706 -42.889,-82.193 -84.48,-102.861 -4.25,-2.108 -9.336,-0.375 -11.443,3.84 -2.099,4.224 -0.367,9.344 3.849,11.443 34.901,17.331 61.099,47.966 73.173,84.668 -17.672,5.726 -39.279,7.629 -43.571,6.042 -1.033,-1.024 -2.048,-5.845 -2.654,-8.73 -1.843,-8.704 -5.265,-24.9 -23.134,-24.9 -15.232,0 -23.313,14.447 -29.815,26.061 -2.014,3.576 -5.205,9.284 -7.296,11.315 -2.116,-2.295 -5.299,-8.456 -7.501,-12.715 -2.517,-4.898 -5.385,-10.445 -8.806,-15.565 -2.569,-3.857 -3.166,-7.851 -1.775,-11.896 2.594,-7.543 11.511,-14.49 23.842,-18.586 12.501,-4.147 10.923,-19.772 9.54,-33.553 -0.691,-6.869 -1.476,-14.652 -0.461,-19.268 0.99,-4.506 -1.783,-8.977 -6.255,-10.103 -12.919,-3.26 -26.3,-4.907 -39.74,-4.907 -68.599,0 -130.048,43.435 -152.9,108.083 -1.578,4.447 0.752,9.319 5.198,10.889 z"
     id="path4"
     style="fill:#6d8b8b;fill-opacity:1" /><path
     d="m 402.475,172.48 c -10.257,0 -17.28,6.187 -22.938,11.162 -2.56,2.253 -6.067,5.342 -7.68,5.342 -0.341,0 -0.794,-0.188 -1.109,-0.341 -7.817,-3.917 -17.306,1.109 -21.811,12.006 -3.226,7.774 -4.25,19.575 3.43,27.255 14.891,14.891 28.032,18.014 36.437,18.014 13.432,0 24.499,-8.175 28.894,-21.35 1.485,-4.463 4.036,-8.457 6.502,-12.322 4.838,-7.578 12.954,-20.267 -0.751,-31.181 -7.253,-5.777 -14.105,-8.585 -20.974,-8.585 z m 7.338,30.584 c -2.739,4.292 -6.153,9.643 -8.303,16.111 -2.082,6.238 -6.605,9.677 -12.706,9.677 -7.322,0 -15.983,-4.625 -24.371,-13.013 -0.666,-0.674 -0.99,-2.27 -0.845,-4.173 0.23,-2.756 1.297,-5.222 2.219,-6.63 1.997,0.674 4.028,1.016 6.059,1.016 8.038,0 13.841,-5.103 18.953,-9.6 4.028,-3.55 7.842,-6.903 11.656,-6.903 2.807,0 6.289,1.638 10.342,4.864 0.751,0.606 1.067,0.998 1.152,1.015 -0.179,1.406 -2.56,5.144 -4.156,7.636 z"
     id="path6"
     style="fill:#6d8b8b;fill-opacity:1" /><path
     d="m 507.418,358.405 c -4.557,-7.893 -11.921,-13.542 -20.727,-15.898 -8.815,-2.364 -17.997,-1.152 -25.361,3.123 l -98.219,47.812 c -15.266,7.629 -30.677,7.629 -64.444,7.629 -33.015,0 -83.422,-8.337 -83.934,-8.414 -4.651,-0.777 -9.045,2.364 -9.813,7.006 -0.777,4.651 2.364,9.054 7.014,9.822 2.116,0.358 52.292,8.653 86.733,8.653 35.422,0 53.205,0 71.987,-9.395 l 98.68,-48.051 c 3.942,-2.287 8.533,-2.901 12.945,-1.707 4.395,1.186 8.081,4.011 10.359,7.953 2.278,3.951 2.884,8.55 1.715,12.954 -1.178,4.403 -4.011,8.081 -8.201,10.505 l -115.379,71.808 c -0.239,0.162 -24.858,15.667 -80.64,15.667 -48.375,0 -123.11,-41.182 -124.186,-41.762 -0.777,-0.393 -19.285,-9.438 -55.014,-9.438 -4.719,0 -8.533,3.823 -8.533,8.533 0,4.71 3.814,8.533 8.533,8.533 31.036,0 47.027,7.467 47.061,7.467 v -0.009 c 3.226,1.792 79.334,43.742 132.139,43.742 61.602,0 88.926,-17.749 89.83,-18.355 l 114.961,-71.552 c 7.902,-4.557 13.551,-11.921 15.906,-20.727 2.365,-8.816 1.144,-18.015 -3.412,-25.899 z"
     id="path8"
     style="fill:#6d8b8b;fill-opacity:1" /><path
     d="M 110.933,324.271 H 179.2 c 9.958,0 26.88,12.698 41.813,23.893 18.722,14.046 36.412,27.307 52.053,27.307 h 51.191 c 12.962,0 19.396,5.879 19.567,6.033 1.664,1.664 3.849,2.5 6.033,2.5 2.185,0 4.369,-0.836 6.033,-2.5 3.337,-3.337 3.337,-8.73 0,-12.066 -1.126,-1.126 -11.605,-11.034 -31.633,-11.034 h -51.191 c -9.958,0 -26.88,-12.698 -41.813,-23.893 -18.722,-14.046 -36.412,-27.307 -52.053,-27.307 h -68.267 c -4.719,0 -8.533,3.823 -8.533,8.533 0,4.71 3.814,8.534 8.533,8.534 z"
     id="path12"
     style="fill:#6d8b8b;fill-opacity:1" /><path
     d="m 59.733,273.071 h -51.2 c -4.719,0 -8.533,3.823 -8.533,8.533 0,4.71 3.814,8.533 8.533,8.533 h 51.2 c 4.71,0 8.533,3.831 8.533,8.533 v 187.733 c 0,4.702 -3.823,8.533 -8.533,8.533 h -51.2 c -4.719,0 -8.533,3.823 -8.533,8.533 0,4.71 3.814,8.533 8.533,8.533 h 51.2 c 14.114,0 25.6,-11.486 25.6,-25.6 V 298.671 c 0,-14.114 -11.486,-25.6 -25.6,-25.6 z"
     id="path14"
     style="fill:#6d8b8b;fill-opacity:1" /></g>
		</g>
	</g>
</g>
<g
   id="g22"
   style="fill:#6d8b8b;fill-opacity:1"
   transform="translate(0,-0.004)">
</g>
<g
   id="g24"
   style="fill:#6d8b8b;fill-opacity:1"
   transform="translate(0,-0.004)">
</g>
<g
   id="g26"
   style="fill:#6d8b8b;fill-opacity:1"
   transform="translate(0,-0.004)">
</g>
<g
   id="g28"
   style="fill:#6d8b8b;fill-opacity:1"
   transform="translate(0,-0.004)">
</g>
<g
   id="g30"
   style="fill:#6d8b8b;fill-opacity:1"
   transform="translate(0,-0.004)">
</g>
<g
   id="g32"
   style="fill:#6d8b8b;fill-opacity:1"
   transform="translate(0,-0.004)">
</g>
<g
   id="g34"
   style="fill:#6d8b8b;fill-opacity:1"
   transform="translate(0,-0.004)">
</g>
<g
   id="g36"
   style="fill:#6d8b8b;fill-opacity:1"
   transform="translate(0,-0.004)">
</g>
<g
   id="g38"
   style="fill:#6d8b8b;fill-opacity:1"
   transform="translate(0,-0.004)">
</g>
<g
   id="g40"
   style="fill:#6d8b8b;fill-opacity:1"
   transform="translate(0,-0.004)">
</g>
<g
   id="g42"
   style="fill:#6d8b8b;fill-opacity:1"
   transform="translate(0,-0.004)">
</g>
<g
   id="g44"
   style="fill:#6d8b8b;fill-opacity:1"
   transform="translate(0,-0.004)">
</g>
<g
   id="g46"
   style="fill:#6d8b8b;fill-opacity:1"
   transform="translate(0,-0.004)">
</g>
<g
   id="g48"
   style="fill:#6d8b8b;fill-opacity:1"
   transform="translate(0,-0.004)">
</g>
<g
   id="g50"
   style="fill:#6d8b8b;fill-opacity:1"
   transform="translate(0,-0.004)">
</g>
</svg>
